<mxfile host="app.diagrams.net" modified="2024-01-07T19:08:28.557Z" agent="Mozilla/5.0 (Windows NT 10.0; Win64; x64) AppleWebKit/537.36 (KHTML, like Gecko) Chrome/120.0.0.0 Safari/537.36" version="22.1.16" etag="6lVt8DW3_n689IIg0TW6" type="github">
  <diagram name="Pagina-1" id="DGLQ2UhNTwQbnFoBwaGd">
    <mxGraphModel>
      <root>
        <mxCell id="0" />
        <mxCell id="1" parent="0" />
      </root>
    </mxGraphModel>
  </diagram>
</mxfile>
